HIERARCHY
ROOT hip
{
OFFSET 0.20 91.84 -1.10
CHANNELS 6 Xposition Yposition Zposition Zrotation Xrotation Yrotation
JOINT abdomen
{
OFFSET 0 7.23 0
CHANNELS 6 Xposition Yposition Zposition Zrotation Xrotation Yrotation
JOINT chest
{
OFFSET 0 16.54 0
CHANNELS 6 Xposition Yposition Zposition Zrotation Xrotation Yrotation
JOINT neck
{
OFFSET 0 34.21 0
CHANNELS 6 Xposition Yposition Zposition Zrotation Xrotation Yrotation
JOINT head
{
OFFSET 0 6.29 0
CHANNELS 6 Xposition Yposition Zposition Zrotation Xrotation Yrotation
End Site
{
OFFSET 0 21.21 0
}
}
}
JOINT lCollar
{
OFFSET 4.06 26.61 -1.12
CHANNELS 6 Xposition Yposition Zposition Zrotation Xrotation Yrotation
JOINT lShldr
{
OFFSET 14.17 0 0
CHANNELS 6 Xposition Yposition Zposition Zrotation Xrotation Yrotation
JOINT lForeArm
{
OFFSET 26.12 0 0
CHANNELS 6 Xposition Yposition Zposition Zrotation Xrotation Yrotation
JOINT lHand
{
OFFSET 27.71 0 0
CHANNELS 6 Xposition Yposition Zposition Zrotation Xrotation Yrotation
JOINT lThumb1
{
OFFSET 2.29 -0.46 1.83
CHANNELS 6 Xposition Yposition Zposition Zrotation Xrotation Yrotation
JOINT lThumb2
{
OFFSET 5.29 0 0
CHANNELS 6 Xposition Yposition Zposition Zrotation Xrotation Yrotation
JOINT lThumb3
{
OFFSET 3.01 0 0
CHANNELS 6 Xposition Yposition Zposition Zrotation Xrotation Yrotation
End Site
{
OFFSET 2.62 0 0
}
}
}
}
JOINT lIndex1
{
OFFSET 9.37 0.29 2.59
CHANNELS 6 Xposition Yposition Zposition Zrotation Xrotation Yrotation
JOINT lIndex2
{
OFFSET 4.34 0 0
CHANNELS 6 Xposition Yposition Zposition Zrotation Xrotation Yrotation
JOINT lIndex3
{
OFFSET 2.16 0 0
CHANNELS 6 Xposition Yposition Zposition Zrotation Xrotation Yrotation
End Site
{
OFFSET 2.20 0 0
}
}
}
}
JOINT lMid1
{
OFFSET 9.47 0.83 0.29
CHANNELS 6 Xposition Yposition Zposition Zrotation Xrotation Yrotation
JOINT lMid2
{
OFFSET 4.77 0 0
CHANNELS 6 Xposition Yposition Zposition Zrotation Xrotation Yrotation
JOINT lMid3
{
OFFSET 2.87 0 0
CHANNELS 6 Xposition Yposition Zposition Zrotation Xrotation Yrotation
End Site
{
OFFSET 2.09 0 0
}
}
}
}
JOINT lRing1
{
OFFSET 8.65 1.01 -1.70
CHANNELS 6 Xposition Yposition Zposition Zrotation Xrotation Yrotation
JOINT lRing2
{
OFFSET 4.54 0 0
CHANNELS 6 Xposition Yposition Zposition Zrotation Xrotation Yrotation
JOINT lRing3
{
OFFSET 2.50 0 0
CHANNELS 6 Xposition Yposition Zposition Zrotation Xrotation Yrotation
End Site
{
OFFSET 2.20 0 0
}
}
}
}
JOINT lPinky1
{
OFFSET 7.69 0.66 -3.90
CHANNELS 6 Xposition Yposition Zposition Zrotation Xrotation Yrotation
JOINT lPinky2
{
OFFSET 3.21 0 0
CHANNELS 6 Xposition Yposition Zposition Zrotation Xrotation Yrotation
JOINT lPinky3
{
OFFSET 1.92 0 0
CHANNELS 6 Xposition Yposition Zposition Zrotation Xrotation Yrotation
End Site
{
OFFSET 1.78 0 0
}
}
}
}
}
}
}
}
JOINT rCollar
{
OFFSET -4.06 26.61 -1.12
CHANNELS 6 Xposition Yposition Zposition Zrotation Xrotation Yrotation
JOINT rShldr
{
OFFSET -14.17 0 0
CHANNELS 6 Xposition Yposition Zposition Zrotation Xrotation Yrotation
JOINT rForeArm
{
OFFSET -26.12 0 0
CHANNELS 6 Xposition Yposition Zposition Zrotation Xrotation Yrotation
JOINT rHand
{
OFFSET -27.71 0 0
CHANNELS 6 Xposition Yposition Zposition Zrotation Xrotation Yrotation
JOINT rThumb1
{
OFFSET -2.29 -0.46 1.83
CHANNELS 6 Xposition Yposition Zposition Zrotation Xrotation Yrotation
JOINT rThumb2
{
OFFSET -5.29 0 0
CHANNELS 6 Xposition Yposition Zposition Zrotation Xrotation Yrotation
JOINT rThumb3
{
OFFSET -3.01 0 0
CHANNELS 6 Xposition Yposition Zposition Zrotation Xrotation Yrotation
End Site
{
OFFSET -2.62 0 0
}
}
}
}
JOINT rIndex1
{
OFFSET -9.37 0.29 2.59
CHANNELS 6 Xposition Yposition Zposition Zrotation Xrotation Yrotation
JOINT rIndex2
{
OFFSET -4.34 0 0
CHANNELS 6 Xposition Yposition Zposition Zrotation Xrotation Yrotation
JOINT rIndex3
{
OFFSET -2.16 0 0
CHANNELS 6 Xposition Yposition Zposition Zrotation Xrotation Yrotation
End Site
{
OFFSET -2.20 0 0
}
}
}
}
JOINT rMid1
{
OFFSET -9.47 0.83 0.29
CHANNELS 6 Xposition Yposition Zposition Zrotation Xrotation Yrotation
JOINT rMid2
{
OFFSET -4.77 0 0
CHANNELS 6 Xposition Yposition Zposition Zrotation Xrotation Yrotation
JOINT rMid3
{
OFFSET -2.87 0 0
CHANNELS 6 Xposition Yposition Zposition Zrotation Xrotation Yrotation
End Site
{
OFFSET -2.09 0 0
}
}
}
}
JOINT rRing1
{
OFFSET -8.65 1.01 -1.70
CHANNELS 6 Xposition Yposition Zposition Zrotation Xrotation Yrotation
JOINT rRing2
{
OFFSET -4.54 0 0
CHANNELS 6 Xposition Yposition Zposition Zrotation Xrotation Yrotation
JOINT rRing3
{
OFFSET -2.50 0 0
CHANNELS 6 Xposition Yposition Zposition Zrotation Xrotation Yrotation
End Site
{
OFFSET -2.20 0 0
}
}
}
}
JOINT rPinky1
{
OFFSET -7.69 0.66 -3.90
CHANNELS 6 Xposition Yposition Zposition Zrotation Xrotation Yrotation
JOINT rPinky2
{
OFFSET -3.21 0 0
CHANNELS 6 Xposition Yposition Zposition Zrotation Xrotation Yrotation
JOINT rPinky3
{
OFFSET -1.92 0 0
CHANNELS 6 Xposition Yposition Zposition Zrotation Xrotation Yrotation
End Site
{
OFFSET -1.78 0 0
}
}
}
}
}
}
}
}
}
}
JOINT lThigh
{
OFFSET 8.73 -0 0
CHANNELS 6 Xposition Yposition Zposition Zrotation Xrotation Yrotation
JOINT lShin
{
OFFSET 0 -46.66 0
CHANNELS 6 Xposition Yposition Zposition Zrotation Xrotation Yrotation
JOINT lFoot
{
OFFSET 0 -40.14 0
CHANNELS 6 Xposition Yposition Zposition Zrotation Xrotation Yrotation
JOINT lToes
{
OFFSET 0 -8.88 14.22
CHANNELS 6 Xposition Yposition Zposition Zrotation Xrotation Yrotation
End Site
{
OFFSET 0 0 6.29
}
}
}
}
}
JOINT rThigh
{
OFFSET -8.73 0 -0
CHANNELS 6 Xposition Yposition Zposition Zrotation Xrotation Yrotation
JOINT rShin
{
OFFSET 0 -46.66 0
CHANNELS 6 Xposition Yposition Zposition Zrotation Xrotation Yrotation
JOINT rFoot
{
OFFSET 0 -40.14 0
CHANNELS 6 Xposition Yposition Zposition Zrotation Xrotation Yrotation
JOINT rToes
{
OFFSET 0 -8.88 14.22
CHANNELS 6 Xposition Yposition Zposition Zrotation Xrotation Yrotation
End Site
{
OFFSET 0 0 6.29
}
}
}
}
}
}
MOTION
Frames: 4
Frame Time: 0.03
0.23 95.23 -8.30 -0.21 15.25 7.61 0 7.23 0 -1.77 -0.24 -3.22 0 16.54 0 -0.14 1.36 -6.24 0 34.21 0 2.39 30.22 1.57 0 6.29 0 1.59 -38.26 0.12 4.06 26.61 -1.12 0.86 -4.30 -3.71 14.17 0 0 -62.65 29.72 -12.13 26.12 0 0 -0.81 0.57 -70.58 27.71 0 0 1.23 -15.12 -13.91 2.29 -0.46 1.83 50.44 61.75 -78.02 5.29 0 0 -27.79 -3.68 10.05 3.01 0 0 1.48 6.58 22.17 9.37 0.29 2.59 -20.07 -2.59 5.06 4.34 0 0 -73.91 -8.40 11.52 2.16 0 0 -44.23 -3.30 7.70 9.47 0.83 0.29 -39.15 -7.59 7.93 4.77 0 0 -79.78 -12.29 14.79 2.87 0 0 -37.34 -2.93 10.41 8.65 1.01 -1.70 -64.03 -4.78 10.04 4.54 0 0 -83.67 -7.05 7.87 2.50 0 0 -35.19 -1.39 5.48 7.69 0.66 -3.90 -59.31 -15.45 10.22 3.21 0 0 -57.18 -9.30 16.98 1.92 0 0 -63.57 -11.23 19.66 -4.06 26.61 -1.12 2.35 -5.68 -15.64 -14.17 0 0 69.70 39.00 -20.57 -26.12 0 0 0.79 0.51 66.62 -27.71 0 0 -7.99 -16.29 18.36 -2.29 -0.46 1.83 -56.88 63.12 75.09 -5.29 0 0 24.65 -1.98 -9.33 -3.01 0 0 0.92 4.80 -21.7 -9.37 0.29 2.59 12.89 -1.96 -3.38 -4.34 0 0 60.16 -5.12 -9.30 -2.16 0 0 36.89 -2.08 -5.86 -9.47 0.83 0.29 31.31 -6.29 -6.03 -4.77 0 0 80.98 -11.50 -13.55 -2.87 0 0 39.99 -3.07 -10.04 -8.65 1.01 -1.70 56.84 -2.82 -8.42 -4.54 0 0 82.00 -5.76 -6.63 -2.50 0 0 36.15 -1.24 -4.73 -7.69 0.66 -3.90 64.90 -15.51 -9.28 -3.21 0 0 58.13 -8.93 -15.99 -1.92 0 0 65.26 -10.96 -18.56 8.73 -0 0 -3.16 -7.91 9.76 0 -46.66 0 3.10 24.92 4.77 0 -40.14 0 -7.91 -9.85 9.08 0 -8.88 14.22 0 0 -0 -8.73 0 -0 -3.95 -44.74 -16.97 0 -46.66 0 -64.48 78.78 50.11 0 -40.14 0 2.87 -5.91 -19.46 0 -8.88 14.22 0 0 0 
-0.02 96.91 -8.42 -2.35 15.70 8.82 0 7.23 0 -0.47 -0.84 -4.22 0 16.54 0 1.79 0.12 -8.04 0 34.21 0 1.70 30.48 1.92 0 6.29 0 0.77 -36.00 0.77 4.06 26.61 -1.12 2.60 -4.53 -6.03 14.17 0 0 -66.60 28.15 -9.43 26.12 0 0 -0.83 0.65 -76.10 27.71 0 0 5.41 -18.01 -14.17 2.29 -0.46 1.83 47.56 61.63 -79.22 5.29 0 0 -30.69 -5.13 11.08 3.01 0 0 -1.42 6.99 24.00 9.37 0.29 2.59 -25.21 -3.09 5.87 4.34 0 0 -80.80 -9.81 11.84 2.16 0 0 -48.78 -3.98 8.34 9.47 0.83 0.29 -48.73 -9.01 9.04 4.77 0 0 -81.31 -12.69 14.86 2.87 0 0 -38.29 -3.09 10.61 8.65 1.01 -1.70 -77.39 -7.20 10.51 4.54 0 0 -78.78 -6.38 7.77 2.50 0 0 -32.16 -1.15 5.13 7.69 0.66 -3.90 -76.50 -18.56 11.01 3.21 0 0 -53.00 -8.07 16.12 1.92 0 0 -57.45 -9.32 18.56 -4.06 26.61 -1.12 1.62 -6.17 -18.26 -14.17 0 0 71.86 37.90 -26.60 -26.12 0 0 0.79 0.51 66.66 -27.71 0 0 -6.45 -15.39 18.82 -2.29 -0.46 1.83 -56.88 63.12 75.09 -5.29 0 0 24.65 -1.98 -9.33 -3.01 0 0 0.92 4.80 -21.7 -9.37 0.29 2.59 11.10 -1.86 -3.10 -4.34 0 0 59.37 -4.99 -9.22 -2.16 0 0 37.00 -2.09 -5.87 -9.47 0.83 0.29 31.17 -6.28 -6.01 -4.77 0 0 79.64 -11.18 -13.50 -2.87 0 0 39.09 -2.93 -9.87 -8.65 1.01 -1.70 57.73 -2.95 -8.48 -4.54 0 0 78.10 -5.31 -6.55 -2.50 0 0 33.64 -1.07 -4.49 -7.69 0.66 -3.90 65.59 -15.62 -9.32 -3.21 0 0 56.52 -8.47 -15.70 -1.92 0 0 62.87 -10.25 -18.21 8.73 -0 0 0.52 -4.18 14.88 0 -46.66 0 3.21 22.19 1.01 0 -40.14 0 -5.59 1.13 9.09 0 -8.88 14.22 0 0 0 -8.73 0 -0 -2.55 -49.11 -15.54 0 -46.66 0 -27.31 69.41 12.85 0 -40.14 0 5.35 -6.25 -20.68 0 -8.88 14.22 0 0 -0 
-0.02 98.81 -8.25 -3.76 16.50 9.24 0 7.23 0 0.66 -1.34 -4.95 0 16.54 0 3.00 -0.92 -9.50 0 34.21 0 1.06 30.50 2.19 0 6.29 0 -0.12 -35.00 1.25 4.06 26.61 -1.12 4.27 -4.60 -6.83 14.17 0 0 -67.81 27.77 -8.48 26.12 0 0 -0.85 0.73 -81.81 27.71 0 0 9.28 -18.93 -14.19 2.29 -0.46 1.83 45.84 61.64 -80.05 5.29 0 0 -32.49 -6.07 11.68 3.01 0 0 -3.27 7.20 25.13 9.37 0.29 2.59 -28.43 -3.43 6.36 4.34 0 0 -85.13 -10.71 11.95 2.16 0 0 -51.63 -4.43 8.72 9.47 0.83 0.29 -54.72 -9.98 9.61 4.77 0 0 -82.27 -12.94 14.89 2.87 0 0 -38.89 -3.18 10.73 8.65 1.01 -1.70 -85.78 -8.74 10.51 4.54 0 0 -75.72 -5.97 7.67 2.50 0 0 -30.26 -1.02 4.91 7.69 0.66 -3.90 -87.40 -20.56 11.00 3.21 0 0 -50.38 -7.34 15.53 1.92 0 0 -53.63 -8.19 17.78 -4.06 26.61 -1.12 1.17 -6.49 -19.16 -14.17 0 0 72.81 36.83 -30.39 -26.12 0 0 0.79 0.52 67.10 -27.71 0 0 -5.04 -15.70 18.85 -2.29 -0.46 1.83 -56.88 63.12 75.09 -5.29 0 0 24.65 -1.98 -9.33 -3.01 0 0 0.92 4.80 -21.7 -9.37 0.29 2.59 10.15 -1.81 -2.96 -4.34 0 0 58.97 -4.92 -9.18 -2.16 0 0 37.17 -2.11 -5.90 -9.47 0.83 0.29 31.14 -6.27 -6.01 -4.77 0 0 78.94 -11.02 -13.47 -2.87 0 0 38.62 -2.86 -9.79 -8.65 1.01 -1.70 58.24 -3.02 -8.51 -4.54 0 0 76.00 -5.08 -6.49 -2.50 0 0 32.28 -0.98 -4.35 -7.69 0.66 -3.90 65.99 -15.68 -9.34 -3.21 0 0 55.62 -8.23 -15.53 -1.92 0 0 61.54 -9.85 -18.00 8.73 -0 0 3.34 -1.36 18.39 0 -46.66 0 3.04 20.65 0.25 0 -40.14 0 -5.51 11.57 8.88 0 -8.88 14.22 0 0 -0 -8.73 0 -0 -0.56 -49.44 -12.95 0 -46.66 0 -13.84 51.57 0.46 0 -40.14 0 5.82 -1.52 -21.65 0 -8.88 14.22 0 0 0 
0.26 100.25 -7.16 -3.73 16.68 8.52 0 7.23 0 1.46 -1.51 -4.90 0 16.54 0 3.58 -1.29 -9.61 0 34.21 0 0.39 30.37 2.37 0 6.29 0 -1.16 -34.78 1.46 4.06 26.61 -1.12 5.07 -4.55 -6.53 14.17 0 0 -66.66 29.43 -10.24 26.12 0 0 -0.85 0.80 -86.58 27.71 0 0 11.43 -17.55 -13.48 2.29 -0.46 1.83 45.65 61.65 -80.15 5.29 0 0 -32.70 -6.18 11.75 3.01 0 0 -3.48 7.23 25.26 9.37 0.29 2.59 -28.80 -3.47 6.42 4.34 0 0 -85.63 -10.81 11.96 2.16 0 0 -51.96 -4.48 8.76 9.47 0.83 0.29 -55.42 -10.10 9.67 4.77 0 0 -82.38 -12.97 14.90 2.87 0 0 -38.96 -3.20 10.74 8.65 1.01 -1.70 -86.75 -8.92 10.49 4.54 0 0 -75.36 -5.92 7.66 2.50 0 0 -30.04 -1.00 4.88 7.69 0.66 -3.90 -88.68 -20.80 10.97 3.21 0 0 -50.07 -7.25 15.46 1.92 0 0 -53.18 -8.07 17.68 -4.06 26.61 -1.12 0.72 -6.63 -19.08 -14.17 0 0 72.85 35.12 -32.29 -26.12 0 0 0.79 0.52 67.06 -27.71 0 0 -3.86 -16.42 18.61 -2.29 -0.46 1.83 -56.88 63.12 75.09 -5.29 0 0 24.65 -1.98 -9.33 -3.01 0 0 0.92 4.80 -21.7 -9.37 0.29 2.59 10.03 -1.80 -2.94 -4.34 0 0 58.91 -4.91 -9.18 -2.16 0 0 37.20 -2.11 -5.90 -9.47 0.83 0.29 31.14 -6.27 -6.01 -4.77 0 0 78.85 -11.00 -13.46 -2.87 0 0 38.56 -2.85 -9.78 -8.65 1.01 -1.70 58.31 -3.04 -8.52 -4.54 0 0 75.72 -5.04 -6.49 -2.50 0 0 32.10 -0.97 -4.34 -7.69 0.66 -3.90 66.05 -15.69 -9.34 -3.21 0 0 55.50 -8.19 -15.51 -1.92 0 0 61.36 -9.80 -17.97 8.73 -0 0 3.43 3.58 18.68 0 -46.66 0 2.93 18.95 4.19 0 -40.14 0 -4.10 16.57 8.62 0 -8.88 14.22 0 0 0 -8.73 0 -0 -0.02 -46.05 -11.71 0 -46.66 0 -8.29 31.87 -5.03 0 -40.14 0 9.38 3.69 -17.91 0 -8.88 14.22 0 0 -0 
